<svg width="22" height="22" viewBox="0 0 22 22" fill="none" xmlns="http://www.w3.org/2000/svg">
<g id="Frame 26">
<rect x="0.354156" y="0.180603" width="21.2917" height="21.2917" rx="10.6458" fill="black"/>
<path id="Line 12" d="M5.67708 10.3828C5.4321 10.3828 5.2335 10.5814 5.2335 10.8264C5.2335 11.0714 5.4321 11.27 5.67708 11.27V10.3828ZM16.6366 11.1401C16.8098 10.9668 16.8098 10.686 16.6366 10.5128L13.8137 7.68986C13.6404 7.51663 13.3596 7.51663 13.1864 7.68986C13.0131 7.86308 13.0131 8.14394 13.1864 8.31717L15.6956 10.8264L13.1864 13.3357C13.0131 13.5089 13.0131 13.7897 13.1864 13.963C13.3596 14.1362 13.6404 14.1362 13.8137 13.963L16.6366 11.1401ZM5.67708 11.27H16.3229V10.3828H5.67708V11.27Z" fill="white"/>
</g>
</svg>
