<svg xmlns="http://www.w3.org/2000/svg" width="15" height="15" viewBox="0 0 15 15" fill="none">
  <path fill-rule="evenodd" clip-rule="evenodd" d="M4.28151 11.5784C6.71053 11.2235 8.38299 11.254 10.8152 11.5908C10.9914 11.6163 11.1523 11.7047 11.2683 11.8397C11.3844 11.9747 11.4477 12.147 11.4465 12.325C11.4465 12.4953 11.388 12.6607 11.2822 12.7899C11.0979 13.0151 10.9091 13.2366 10.7158 13.4542H11.653C11.7119 13.3839 11.7712 13.3122 11.8312 13.2395C12.0417 12.9814 12.1565 12.6584 12.1562 12.3254C12.1562 11.6068 11.6317 10.9875 10.9124 10.8882C8.42274 10.5436 6.6825 10.5106 4.17895 10.8765C3.4522 10.9826 2.92984 11.6114 2.92984 12.3349C2.92984 12.6561 3.03452 12.9737 3.23289 13.231C3.29144 13.3069 3.34929 13.3814 3.40677 13.4545H4.32125C4.14149 13.2393 3.96615 13.0204 3.79535 12.798C3.69384 12.6649 3.63909 12.502 3.63956 12.3346C3.63956 11.9524 3.91422 11.632 4.28151 11.5784ZM7.54304 8.13126C7.82264 8.13126 8.09951 8.07619 8.35783 7.96919C8.61615 7.86219 8.85087 7.70536 9.04858 7.50765C9.2463 7.30993 9.40313 7.07522 9.51013 6.81689C9.61713 6.55857 9.6722 6.2817 9.6722 6.0021C9.6722 5.72249 9.61713 5.44562 9.51013 5.1873C9.40313 4.92898 9.2463 4.69426 9.04858 4.49655C8.85087 4.29884 8.61615 4.142 8.35783 4.035C8.09951 3.928 7.82264 3.87293 7.54304 3.87293C6.97834 3.87293 6.43678 4.09725 6.03749 4.49655C5.63819 4.89585 5.41387 5.43741 5.41387 6.0021C5.41387 6.56679 5.63819 7.10835 6.03749 7.50765C6.43678 7.90694 6.97834 8.13126 7.54304 8.13126ZM7.54304 8.84099C8.29596 8.84099 9.01804 8.54189 9.55043 8.00949C10.0828 7.4771 10.3819 6.75502 10.3819 6.0021C10.3819 5.24918 10.0828 4.52709 9.55043 3.9947C9.01804 3.4623 8.29596 3.16321 7.54304 3.16321C6.79012 3.16321 6.06803 3.4623 5.53564 3.9947C5.00324 4.52709 4.70415 5.24918 4.70415 6.0021C4.70415 6.75502 5.00324 7.4771 5.53564 8.00949C6.06803 8.54189 6.79012 8.84099 7.54304 8.84099Z" fill="black"/>
  <path fill-rule="evenodd" clip-rule="evenodd" d="M7.54304 14.1639C11.0707 14.1639 13.9305 11.3041 13.9305 7.77642C13.9305 4.24875 11.0707 1.38892 7.54304 1.38892C4.01536 1.38892 1.15554 4.24875 1.15554 7.77642C1.15554 11.3041 4.01536 14.1639 7.54304 14.1639ZM7.54304 14.8736C11.4628 14.8736 14.6403 11.6962 14.6403 7.77642C14.6403 3.85663 11.4628 0.679199 7.54304 0.679199C3.62324 0.679199 0.445816 3.85663 0.445816 7.77642C0.445816 11.6962 3.62324 14.8736 7.54304 14.8736Z" fill="black"/>
</svg>
